<?xml version="1.0" encoding="UTF-8" standalone="no"?>
<!-- Created with Inkscape (http://www.inkscape.org/) -->

<svg
   xmlns:dc="http://purl.org/dc/elements/1.1/"
   xmlns:cc="http://creativecommons.org/ns#"
   xmlns:rdf="http://www.w3.org/1999/02/22-rdf-syntax-ns#"
   xmlns:svg="http://www.w3.org/2000/svg"
   xmlns="http://www.w3.org/2000/svg"
   xmlns:sodipodi="http://sodipodi.sourceforge.net/DTD/sodipodi-0.dtd"
   xmlns:inkscape="http://www.inkscape.org/namespaces/inkscape"
   width="64"
   height="64"
   viewBox="0 0 16.933333 16.933334"
   version="1.1"
   id="svg8"
   inkscape:version="0.92.3 (2405546, 2018-03-11)"
   sodipodi:docname="camera-trigger.svg">
  <defs
     id="defs2" />
  <sodipodi:namedview
     id="base"
     pagecolor="#ffffff"
     bordercolor="#666666"
     borderopacity="1.0"
     inkscape:pageopacity="0.0"
     inkscape:pageshadow="2"
     inkscape:zoom="10.295833"
     inkscape:cx="26.068415"
     inkscape:cy="33.438079"
     inkscape:document-units="mm"
     inkscape:current-layer="layer1"
     showgrid="true"
     units="px"
     inkscape:window-width="1920"
     inkscape:window-height="1137"
     inkscape:window-x="-8"
     inkscape:window-y="-8"
     inkscape:window-maximized="1">
    <inkscape:grid
       type="xygrid"
       id="grid815" />
  </sodipodi:namedview>
  <metadata
     id="metadata5">
    <rdf:RDF>
      <cc:Work
         rdf:about="">
        <dc:format>image/svg+xml</dc:format>
        <dc:type
           rdf:resource="http://purl.org/dc/dcmitype/StillImage" />
        <dc:title></dc:title>
      </cc:Work>
    </rdf:RDF>
  </metadata>
  <g
     inkscape:label="1. réteg"
     inkscape:groupmode="layer"
     id="layer1"
     transform="translate(0,-280.06665)">
    <path
       style="fill:#ffffff;fill-opacity:1;stroke:none;stroke-width:0.99999994"
       d="M 32 0 A 31.999998 31.999998 0 0 0 0 32 A 31.999998 31.999998 0 0 0 32 64 A 31.999998 31.999998 0 0 0 64 32 A 31.999998 31.999998 0 0 0 32 0 z M 32.003906 3.9570312 A 28.017804 28.017804 0 0 1 60.021484 31.974609 A 28.017804 28.017804 0 0 1 32.003906 59.992188 A 28.017804 28.017804 0 0 1 3.9863281 31.974609 A 28.017804 28.017804 0 0 1 32.003906 3.9570312 z "
       transform="matrix(0.26458333,0,0,0.26458333,0,280.06665)"
       id="path817" />
    <circle
       style="fill:#ffffff;fill-opacity:1;stroke:none;stroke-width:0.23394328"
       id="path835"
       cx="8.4666662"
       cy="288.53333"
       r="6.0825257" />
  </g>
</svg>
