<!--?xml version="1.0" encoding="utf-8"?-->
<!-- Generator: Adobe Illustrator 18.1.1, SVG Export Plug-In . SVG Version: 6.00 Build 0)  -->

<svg version="1.1" id="_x31_0" xmlns="http://www.w3.org/2000/svg" xmlns:xlink="http://www.w3.org/1999/xlink" x="0px" y="0px" viewBox="0 0 512 512" style="width: 256px; height: 256px; opacity: 1;" xml:space="preserve">
<style type="text/css">
	.st0{fill:#374149;}
</style>
<g>
	<path class="st0" d="M256,0C114.617,0,0,114.61,0,256c0,141.383,114.617,256,256,256s256-114.617,256-256
		C512,114.61,397.383,0,256,0z M386.086,176.266v161.27H125.914V131.309h148.679v44.957H386.086z M128.008,352.496h258.078v28.195
		H128.008V352.496z" style="fill: rgb(255, 0, 0);"></path>
	<path class="st0" d="M251.797,154.106H148.711v160.629h214.578V199.066H251.797V154.106z M233.234,188.851v38.985h-24.602v-38.985
		H233.234z M233.234,245.797v38.988h-24.602v-38.988H233.234z M190.07,188.851v38.985h-24.602v-38.985H190.07z M190.07,245.797
		v38.988h-24.602v-38.988H190.07z M273.367,273.992v-38.984h24.602v38.984H273.367z M316.531,273.992v-38.984h24.602v38.984H316.531
		z" style="fill: rgb(255, 0, 0);"></path>
</g>
</svg>
