<?xml version="1.0" encoding="UTF-8"?>
<svg width="153.4mm" height="152.65mm" version="1.1" viewBox="0 0 153.40201 152.64752" xmlns="http://www.w3.org/2000/svg" xmlns:cc="http://creativecommons.org/ns#" xmlns:dc="http://purl.org/dc/elements/1.1/" xmlns:rdf="http://www.w3.org/1999/02/22-rdf-syntax-ns#">
<metadata>
<rdf:RDF>
<cc:Work rdf:about="">
<dc:format>image/svg+xml</dc:format>
<dc:type rdf:resource="http://purl.org/dc/dcmitype/StillImage"/>
<dc:title/>
</cc:Work>
</rdf:RDF>
</metadata>
<g transform="translate(-53.377 -101.56)">
<path transform="scale(.26458)" d="m525.72 383.84c-140.72 0-255.82 115.09-255.82 255.82 0 52.686 16.136 101.78 43.707 142.58l-111.86 111.86 66.67 66.67 111.35-111.35c41.463 28.985 91.809 46.041 145.96 46.041 140.72 0 255.81-115.09 255.81-255.81s-115.09-255.82-255.81-255.82zm0 94.488c89.658 0 161.32 71.672 161.32 161.33s-71.664 161.32-161.32 161.32c-89.658 0-161.33-71.666-161.33-161.32s71.674-161.33 161.33-161.33z" color="#000000" color-rendering="auto" dominant-baseline="auto" fill="#fff" image-rendering="auto" shape-rendering="auto" solid-color="#000000" style="font-feature-settings:normal;font-variant-alternates:normal;font-variant-caps:normal;font-variant-ligatures:normal;font-variant-numeric:normal;font-variant-position:normal;isolation:auto;mix-blend-mode:normal;shape-padding:0;text-decoration-color:#000000;text-decoration-line:none;text-decoration-style:solid;text-indent:0;text-orientation:mixed;text-transform:none;white-space:normal"/>
</g>
</svg>
