<?xml version="1.0" encoding="UTF-8"?>
<svg width="280.02mm" height="58.51mm" version="1.1" viewBox="0 0 280.02 58.51" xmlns="http://www.w3.org/2000/svg">
<g transform="translate(28.723 -122.12)">
<g transform="matrix(1.0018 0 0 .9982 301.48 -47.039)" aria-label="LOMEX">
<g transform="translate(11.739 85.68)" stroke="#f00">
<path d="m-339.85 86.205h16.618v40.535h25.935v13.243h-42.553z" fill="#f00"/>
<path d="m-297.84 113.13q0-13.169 7.3367-20.506t20.433-7.3367q13.426 0 20.689 7.2266 7.2633 7.1899 7.2633 20.176 0 9.4276-3.1914 15.48-3.1548 6.0161-9.1708 9.3909-5.9794 3.3382-14.93 3.3382-9.0975 0-15.077-2.898-5.9427-2.898-9.6477-9.1708-3.705-6.2728-3.705-15.7zm16.618 0.0734q0 8.1437 3.008 11.702 3.0447 3.5583 8.2538 3.5583 5.3558 0 8.2904-3.4849t2.9347-12.509q0-7.5934-3.0814-11.078-3.0447-3.5216-8.2904-3.5216-5.0256 0-8.0703 3.5583-3.0447 3.5583-3.0447 11.775z" fill="#f00"/>
<path d="m-240.16 86.205h21.863l8.4372 32.722 8.4005-32.722h21.79v53.778h-13.573v-41.012l-10.528 41.012h-12.289l-10.491-41.012v41.012h-13.61z" fill="#f00"/>
<path d="m-167.61 86.205h44.534l-2.236 11.482h-27.879l-1.6645 8.5472h25.862l-2.136 10.968h-25.862l-2.0646 10.601h28.686l-2.3718 12.179h-45.341z" fill="#fff"/>
<path d="m-119.11 86.205h18.305l6.3157 16.544 12.466-16.544h18.122l-21.8 26.045 12.904 27.733h-18.672l-7.2367-17.278-14.003 17.278h-18.562l24.02-28.026z" fill="#fff"/>
</g>
</g>
</g>
</svg>
