<?xml version="1.0" encoding="UTF-8" standalone="no"?>
<svg
   xmlns="http://www.w3.org/2000/svg"
   width="78mm"
   height="35mm"
   viewBox="0 0 78 35"
   version="1.1">
  <g transform="translate(-12.664015,-14.704561)">
    <g
       transform="translate(-0.52916171)"
       style="fill:#235eaf">
      <path d="m 30.508605,16.274927 q 2.089616,0 3.722129,0.979509 1.632513,0.946857 2.546718,2.644669 0.91421,1.665165 0.91421,3.754781 v 0.42445 q 0,2.089621 -0.91421,3.787433 -0.914205,1.697812 -2.546718,2.677321 -1.632513,0.946857 -3.722129,0.946857 h -5.387294 v 7.248356 H 17.905608 V 16.274927 Z m -5.387294,9.958329 h 2.971174 q 1.142759,0 1.697812,-0.587705 0.587706,-0.587706 0.587706,-1.599861 v -0.261206 q 0,-1.044808 -0.587706,-1.599861 -0.555053,-0.587706 -1.697812,-0.587706 h -2.971174 z"/>
      <path d="m 51.60857,15.883124 q 5.811745,0 8.97882,2.971173 3.16707,2.971174 3.16707,8.652321 0,5.681141 -3.16707,8.652315 -3.167075,2.971174 -8.97882,2.971174 -5.811748,0 -8.978818,-2.938522 -3.134429,-2.971174 -3.134429,-8.684967 0,-5.713799 3.134429,-8.652321 3.16707,-2.971173 8.978818,-2.971173 z m 0,5.387294 q -2.318169,0 -3.526231,1.403959 -1.208057,1.403959 -1.208057,3.787433 v 2.089615 q 0,2.383469 1.208057,3.787428 1.208062,1.40396 3.526231,1.40396 2.318164,0 3.526227,-1.40396 1.24071,-1.403959 1.24071,-3.787428 V 26.46181 q 0,-2.383474 -1.24071,-3.787433 -1.208063,-1.403959 -3.526227,-1.403959 z"/>
      <path d="m 66.848675,16.274927 h 19.426898 v 5.387294 H 74.064379 v 3.101772 h 10.448084 v 5.15874 H 74.064379 v 3.428276 h 12.439748 v 5.387294 H 66.848675 Z"/>
      <path d="m 62.875493,37.675209 a 2.7028968,2.7028968 0 0 1 -2.702897,2.702897 2.7028968,2.7028968 0 0 1 -2.702897,-2.702897 2.7028968,2.7028968 0 0 1 2.702897,-2.702897 2.7028968,2.7028968 0 0 1 2.702897,2.702897 z"/>
    </g>
    <g
       aria-label="Pharma Quality and Energy"
       style="fill:black;stroke:none;">
      <path d="m 16.734951,44.790148 q 0,0.265322 -0.0938,0.493123 -0.09112,0.225122 -0.257282,0.391283 -0.206361,0.206362 -0.487763,0.310882 -0.281402,0.101841 -0.710206,0.101841 h -0.530643 v 1.487411 h -0.530644 v -3.990549 h 1.082728 q 0.359122,0 0.608364,0.06164 0.249242,0.05896 0.442203,0.187602 0.227802,0.152761 0.351083,0.380563 0.125961,0.227801 0.12596,0.576204 z m -0.552084,0.0134 q 0,-0.206362 -0.07236,-0.359123 -0.07236,-0.152761 -0.219761,-0.249242 -0.128641,-0.08308 -0.294803,-0.11792 -0.163481,-0.03752 -0.415403,-0.03752 h -0.525283 v 1.594612 h 0.447563 q 0.321602,0 0.522604,-0.05628 0.201001,-0.05896 0.326962,-0.184921 0.125961,-0.128641 0.176881,-0.270682 0.0536,-0.142041 0.0536,-0.318922 z"/>
      <path d="M 19.900054,47.574688 H 19.39621 v -1.704492 q 0,-0.206362 -0.02412,-0.385923 -0.02412,-0.182242 -0.08844,-0.284082 -0.067,-0.112561 -0.192961,-0.166162 -0.125961,-0.05628 -0.326963,-0.05628 -0.206361,0 -0.431483,0.101841 -0.225121,0.101841 -0.431483,0.259962 v 2.235136 h -0.503844 v -4.17011 h 0.503844 v 1.508851 q 0.235842,-0.195642 0.487764,-0.305523 0.251921,-0.10988 0.517243,-0.10988 0.485084,0 0.739686,0.292122 0.254602,0.292122 0.254602,0.841526 z"/>
      <path d="m 23.196478,47.574688 h -0.501164 v -0.318922 q -0.067,0.04556 -0.182241,0.128641 -0.112561,0.0804 -0.219762,0.128641 -0.125961,0.06164 -0.289442,0.10184 -0.163481,0.04288 -0.383243,0.04288 -0.404683,0 -0.686085,-0.268002 -0.281402,-0.268002 -0.281402,-0.683405 0,-0.340363 0.144721,-0.549404 0.147401,-0.211722 0.418083,-0.332323 0.273362,-0.120601 0.656605,-0.163481 0.383243,-0.04288 0.822766,-0.06432 v -0.07772 q 0,-0.171521 -0.06164,-0.284082 -0.05896,-0.112561 -0.171522,-0.176881 -0.1072,-0.06164 -0.257281,-0.08308 -0.150081,-0.02144 -0.313563,-0.02144 -0.198321,0 -0.442203,0.0536 -0.243882,0.05092 -0.503844,0.150081 h -0.0268 v -0.511883 q 0.147401,-0.0402 0.426123,-0.08844 0.278722,-0.04824 0.549404,-0.04824 0.316243,0 0.549404,0.0536 0.235842,0.05092 0.407363,0.176881 0.168842,0.123281 0.257282,0.318923 0.08844,0.195641 0.08844,0.485083 z m -0.501164,-0.737005 v -0.833486 q -0.230482,0.0134 -0.544044,0.0402 -0.310882,0.0268 -0.493123,0.07772 -0.217082,0.06164 -0.351083,0.192962 -0.134001,0.128641 -0.134001,0.356442 0,0.257282 0.155441,0.388603 0.155441,0.128641 0.474364,0.128641 0.265322,0 0.485083,-0.101841 0.219762,-0.10452 0.407363,-0.249241 z"/>
      <path d="m 26.039978,45.13051 h -0.0268 q -0.112561,-0.0268 -0.219762,-0.03752 -0.104521,-0.0134 -0.249242,-0.0134 -0.233161,0 -0.450243,0.104521 -0.217081,0.10184 -0.418083,0.265322 v 2.125255 h -0.503844 v -2.993582 h 0.503844 v 0.442203 q 0.300162,-0.241201 0.527964,-0.340362 0.230482,-0.101841 0.469003,-0.101841 0.131321,0 0.190282,0.008 0.05896,0.0054 0.176881,0.02412 z"/>
      <path d="M 30.888133,47.574688 H 30.38429 v -1.704492 q 0,-0.192962 -0.01876,-0.372523 -0.01608,-0.179561 -0.07236,-0.286762 -0.06164,-0.115241 -0.176881,-0.174201 -0.115241,-0.05896 -0.332323,-0.05896 -0.211721,0 -0.423443,0.107201 -0.211721,0.104521 -0.423443,0.268002 0.008,0.06164 0.0134,0.144721 0.0054,0.0804 0.0054,0.160801 v 1.916214 h -0.503843 v -1.704492 q 0,-0.198322 -0.01876,-0.375203 -0.01608,-0.179561 -0.07236,-0.286762 -0.06164,-0.115241 -0.176881,-0.171521 -0.115241,-0.05896 -0.332323,-0.05896 -0.206361,0 -0.415403,0.101841 -0.206361,0.101841 -0.412723,0.259962 v 2.235136 h -0.503843 v -2.993582 h 0.503843 v 0.332323 q 0.235842,-0.195642 0.469004,-0.305523 0.235842,-0.10988 0.501163,-0.10988 0.305523,0 0.517244,0.128641 0.214402,0.12864 0.318923,0.356442 0.305522,-0.257282 0.557444,-0.369843 0.251921,-0.11524 0.538683,-0.11524 0.493124,0 0.726286,0.300162 0.235841,0.297482 0.235841,0.833486 z"/>
      <path d="m 34.184558,47.574688 h -0.501164 v -0.318922 q -0.067,0.04556 -0.182241,0.128641 -0.112561,0.0804 -0.219762,0.128641 -0.125961,0.06164 -0.289442,0.10184 -0.163481,0.04288 -0.383243,0.04288 -0.404683,0 -0.686085,-0.268002 -0.281402,-0.268002 -0.281402,-0.683405 0,-0.340363 0.144721,-0.549404 0.147401,-0.211722 0.418083,-0.332323 0.273362,-0.120601 0.656605,-0.163481 0.383243,-0.04288 0.822766,-0.06432 v -0.07772 q 0,-0.171521 -0.06164,-0.284082 -0.05896,-0.112561 -0.171521,-0.176881 -0.107201,-0.06164 -0.257282,-0.08308 -0.150081,-0.02144 -0.313563,-0.02144 -0.198321,0 -0.442203,0.0536 -0.243882,0.05092 -0.503844,0.150081 h -0.0268 v -0.511883 q 0.147401,-0.0402 0.426123,-0.08844 0.278722,-0.04824 0.549404,-0.04824 0.316243,0 0.549404,0.0536 0.235842,0.05092 0.407363,0.176881 0.168842,0.123281 0.257282,0.318923 0.08844,0.195641 0.08844,0.485083 z m -0.501164,-0.737005 v -0.833486 q -0.230481,0.0134 -0.544044,0.0402 -0.310882,0.0268 -0.493123,0.07772 -0.217082,0.06164 -0.351083,0.192962 -0.134001,0.128641 -0.134001,0.356442 0,0.257282 0.155441,0.388603 0.155441,0.128641 0.474364,0.128641 0.265322,0 0.485083,-0.101841 0.219762,-0.10452 0.407363,-0.249241 z"/>
      <path d="m 40.688965,48.552895 q -0.160801,0.0402 -0.318923,0.05628 -0.155441,0.01876 -0.318922,0.01876 -0.466323,0 -0.750405,-0.257282 -0.281402,-0.254602 -0.305523,-0.731646 -0.06432,0.01072 -0.125961,0.0134 -0.05896,0.0054 -0.11524,0.0054 -0.420763,0 -0.766486,-0.139361 -0.343042,-0.139361 -0.584244,-0.404683 -0.241202,-0.265322 -0.372523,-0.651245 -0.128641,-0.385923 -0.128641,-0.881727 0,-0.487763 0.128641,-0.873686 0.128641,-0.388603 0.375203,-0.664645 0.235842,-0.262642 0.584244,-0.402003 0.351083,-0.139361 0.763806,-0.139361 0.428803,0 0.769165,0.142041 0.343043,0.139361 0.581564,0.399323 0.243882,0.268002 0.372523,0.656605 0.131321,0.388603 0.131321,0.881726 0,0.731646 -0.300162,1.232809 -0.297482,0.501164 -0.801326,0.702166 0.01072,0.305522 0.144721,0.474363 0.134001,0.168841 0.487764,0.168841 0.109881,0 0.259962,-0.03484 0.152761,-0.03216 0.217081,-0.05896 h 0.07236 z M 40.05648,45.580753 q 0,-0.777205 -0.348402,-1.197968 -0.348403,-0.423443 -0.951407,-0.423443 -0.608365,0 -0.956767,0.423443 -0.345723,0.420763 -0.345723,1.197968 0,0.785246 0.353763,1.203329 0.353762,0.415403 0.948727,0.415403 0.594964,0 0.946047,-0.415403 0.353762,-0.418083 0.353762,-1.203329 z"/>
      <path d="m 43.891587,47.574688 h -0.503844 v -0.332322 q -0.254601,0.201001 -0.487763,0.308202 -0.233162,0.107201 -0.514564,0.107201 -0.471683,0 -0.734325,-0.286763 -0.262642,-0.289442 -0.262642,-0.846886 v -1.943014 h 0.503843 v 1.704493 q 0,0.227801 0.02144,0.391282 0.02144,0.160802 0.09112,0.276042 0.07236,0.117921 0.187602,0.171522 0.115241,0.0536 0.335002,0.0536 0.195642,0 0.426123,-0.101841 0.233162,-0.10184 0.434163,-0.259962 v -2.235136 h 0.503844 z"/>
      <path d="m 47.209453,47.574688 h -0.501164 v -0.318922 q -0.067,0.04556 -0.182241,0.128641 -0.112561,0.0804 -0.219762,0.128641 -0.125961,0.06164 -0.289442,0.10184 -0.163481,0.04288 -0.383243,0.04288 -0.404683,0 -0.686085,-0.268002 -0.281402,-0.268002 -0.281402,-0.683405 0,-0.340363 0.144721,-0.549404 0.147401,-0.211722 0.418083,-0.332323 0.273362,-0.120601 0.656605,-0.163481 0.383243,-0.04288 0.822766,-0.06432 v -0.07772 q 0,-0.171521 -0.06164,-0.284082 -0.05896,-0.112561 -0.171521,-0.176881 -0.107201,-0.06164 -0.257282,-0.08308 -0.150081,-0.02144 -0.313562,-0.02144 -0.198321,0 -0.442203,0.0536 -0.243882,0.05092 -0.503844,0.150081 h -0.0268 v -0.511883 q 0.147401,-0.0402 0.426123,-0.08844 0.278722,-0.04824 0.549404,-0.04824 0.316242,0 0.549404,0.0536 0.235842,0.05092 0.407363,0.176881 0.168841,0.123281 0.257282,0.318923 0.08844,0.195641 0.08844,0.485083 z m -0.501164,-0.737005 v -0.833486 q -0.230482,0.0134 -0.544044,0.0402 -0.310882,0.0268 -0.493124,0.07772 -0.217081,0.06164 -0.351082,0.192962 -0.134001,0.128641 -0.134001,0.356442 0,0.257282 0.155441,0.388603 0.155441,0.128641 0.474363,0.128641 0.265322,0 0.485084,-0.101841 0.219762,-0.10452 0.407363,-0.249241 z"/>
      <path d="m 48.694182,47.574688 h -0.503844 v -4.17011 h 0.503844 z"/>
      <path d="M 50.237874,44.079943 H 49.66971 v -0.522604 h 0.568164 z m -0.03216,3.494745 H 49.70187 v -2.993582 h 0.503844 z"/>
      <path d="m 52.762453,47.547888 q -0.142041,0.03752 -0.310882,0.06164 -0.166161,0.02412 -0.297482,0.02412 -0.458284,0 -0.696805,-0.246561 -0.238522,-0.246562 -0.238522,-0.790606 V 45.004549 H 50.8784 v -0.423443 h 0.340362 V 43.72082 h 0.503844 v 0.860286 h 1.039847 v 0.423443 h -1.039847 v 1.36413 q 0,0.235842 0.01072,0.369843 0.01072,0.131321 0.07504,0.246562 0.05896,0.1072 0.160801,0.158121 0.104521,0.04824 0.316243,0.04824 0.123281,0 0.257282,-0.03484 0.134001,-0.03752 0.192961,-0.06164 h 0.0268 z"/>
      <path d="m 55.940957,44.581106 -1.747373,4.09775 H 53.6549 l 0.557444,-1.248889 -1.192608,-2.848861 h 0.546724 l 0.919246,2.219056 0.927287,-2.219056 z"/>
      <path d="m 60.85611,47.574688 h -0.501163 v -0.318922 q -0.067,0.04556 -0.182241,0.128641 -0.112561,0.0804 -0.219762,0.128641 -0.125961,0.06164 -0.289442,0.10184 -0.163481,0.04288 -0.383243,0.04288 -0.404683,0 -0.686085,-0.268002 -0.281402,-0.268002 -0.281402,-0.683405 0,-0.340363 0.144721,-0.549404 0.147401,-0.211722 0.418083,-0.332323 0.273362,-0.120601 0.656605,-0.163481 0.383243,-0.04288 0.822766,-0.06432 v -0.07772 q 0,-0.171521 -0.06164,-0.284082 -0.05896,-0.112561 -0.171521,-0.176881 -0.107201,-0.06164 -0.257282,-0.08308 -0.150081,-0.02144 -0.313562,-0.02144 -0.198321,0 -0.442203,0.0536 -0.243882,0.05092 -0.503844,0.150081 h -0.0268 v -0.511883 q 0.147401,-0.0402 0.426123,-0.08844 0.278722,-0.04824 0.549404,-0.04824 0.316242,0 0.549404,0.0536 0.235842,0.05092 0.407363,0.176881 0.168841,0.123281 0.257282,0.318923 0.08844,0.195641 0.08844,0.485083 z m -0.501163,-0.737005 v -0.833486 q -0.230482,0.0134 -0.544044,0.0402 -0.310882,0.0268 -0.493124,0.07772 -0.217081,0.06164 -0.351082,0.192962 -0.134001,0.128641 -0.134001,0.356442 0,0.257282 0.155441,0.388603 0.155441,0.128641 0.474363,0.128641 0.265322,0 0.485084,-0.101841 0.219761,-0.10452 0.407363,-0.249241 z"/>
      <path d="m 64.334776,47.574688 h -0.503843 v -1.704492 q 0,-0.206362 -0.02412,-0.385923 -0.02412,-0.182242 -0.08844,-0.284082 -0.067,-0.112561 -0.192962,-0.166162 -0.125961,-0.05628 -0.326962,-0.05628 -0.206361,0 -0.431483,0.101841 -0.225122,0.101841 -0.431483,0.259962 v 2.235136 h -0.503844 v -2.993582 h 0.503844 v 0.332323 q 0.235841,-0.195642 0.487763,-0.305523 0.251922,-0.10988 0.517244,-0.10988 0.485084,0 0.739685,0.292122 0.254602,0.292122 0.254602,0.841526 z"/>
      <path d="m 67.73304,47.574688 h -0.503843 v -0.313562 q -0.217082,0.187601 -0.452923,0.292122 -0.235842,0.104521 -0.511884,0.104521 -0.536004,0 -0.852246,-0.412723 -0.313563,-0.412723 -0.313563,-1.144369 0,-0.380563 0.107201,-0.678045 0.109881,-0.297482 0.294802,-0.506523 0.182242,-0.203682 0.423443,-0.310883 0.243882,-0.1072 0.503844,-0.1072 0.235842,0 0.418083,0.05092 0.182241,0.04824 0.383243,0.152761 V 43.404578 H 67.73304 Z M 67.229197,46.837683 V 45.11979 q -0.203682,-0.09112 -0.364483,-0.125961 -0.160801,-0.03484 -0.351082,-0.03484 -0.423443,0 -0.659285,0.294802 -0.235842,0.294802 -0.235842,0.836166 0,0.533324 0.182241,0.812046 0.182242,0.276042 0.584245,0.276042 0.214401,0 0.434163,-0.0938 0.219761,-0.09648 0.410043,-0.246562 z"/>
      <path d="m 73.323562,47.574688 h -2.629099 v -3.990549 h 2.629099 v 0.471683 h -2.098456 v 1.093448 h 2.098456 v 0.471684 h -2.098456 v 1.482051 h 2.098456 z"/>
      <path d="m 76.630705,47.574688 h -0.503843 v -1.704492 q 0,-0.206362 -0.02412,-0.385923 -0.02412,-0.182242 -0.08844,-0.284082 -0.067,-0.112561 -0.192962,-0.166162 -0.125961,-0.05628 -0.326962,-0.05628 -0.206362,0 -0.431483,0.101841 -0.225122,0.101841 -0.431483,0.259962 v 2.235136 h -0.503844 v -2.993582 h 0.503844 v 0.332323 q 0.235841,-0.195642 0.487763,-0.305523 0.251922,-0.10988 0.517244,-0.10988 0.485084,0 0.739685,0.292122 0.254602,0.292122 0.254602,0.841526 z"/>
      <path d="m 80.10669,46.130157 h -2.205656 q 0,0.276042 0.08308,0.482404 0.08308,0.203681 0.227801,0.335002 0.139361,0.128641 0.329643,0.192962 0.192961,0.06432 0.423443,0.06432 0.305522,0 0.613724,-0.120601 0.310882,-0.123281 0.442203,-0.241201 h 0.0268 v 0.549404 q -0.254602,0.1072 -0.519924,0.179561 -0.265322,0.07236 -0.557444,0.07236 -0.745046,0 -1.163129,-0.402002 -0.418083,-0.404683 -0.418083,-1.147049 0,-0.734325 0.399323,-1.165808 0.402003,-0.431483 1.055928,-0.431483 0.605684,0 0.932647,0.353762 0.329642,0.353763 0.329642,1.005007 z m -0.490444,-0.385922 q -0.0027,-0.396643 -0.201001,-0.613725 -0.195641,-0.217081 -0.597644,-0.217081 -0.404683,0 -0.645885,0.238521 -0.238522,0.238522 -0.270682,0.592285 z"/>
      <path d="m 82.738472,45.13051 h -0.0268 q -0.112561,-0.0268 -0.219762,-0.03752 -0.104521,-0.0134 -0.249242,-0.0134 -0.233161,0 -0.450243,0.104521 -0.217081,0.10184 -0.418083,0.265322 v 2.125255 h -0.503844 v -2.993582 h 0.503844 v 0.442203 q 0.300162,-0.241201 0.527964,-0.340362 0.230482,-0.101841 0.469003,-0.101841 0.131321,0 0.190282,0.008 0.05896,0.0054 0.176881,0.02412 z"/>
      <path d="m 85.64629,47.234325 q 0,0.761126 -0.345722,1.117569 -0.345723,0.356442 -1.063968,0.356442 -0.238522,0 -0.466323,-0.03484 -0.225122,-0.03216 -0.444883,-0.0938 v -0.514563 h 0.0268 q 0.123281,0.04824 0.391283,0.11792 0.268002,0.07236 0.536004,0.07236 0.257281,0 0.426123,-0.06164 0.168841,-0.06164 0.262642,-0.171521 0.0938,-0.104521 0.134001,-0.251922 0.0402,-0.147401 0.0402,-0.329642 v -0.273362 q -0.227802,0.182241 -0.436843,0.273362 -0.206362,0.08844 -0.527964,0.08844 -0.536004,0 -0.852246,-0.385923 -0.313563,-0.388603 -0.313563,-1.093448 0,-0.385923 0.107201,-0.664645 0.109881,-0.281402 0.297482,-0.485083 0.174202,-0.190282 0.423443,-0.294803 0.249242,-0.1072 0.495804,-0.1072 0.259962,0 0.434163,0.0536 0.176881,0.05092 0.372523,0.158121 l 0.03216,-0.128641 H 85.64629 Z M 85.142447,46.751922 V 45.11979 q -0.201002,-0.09112 -0.375203,-0.128641 -0.171521,-0.0402 -0.343042,-0.0402 -0.415403,0 -0.653925,0.278722 -0.238522,0.278722 -0.238522,0.809366 0,0.503843 0.176881,0.763805 0.176882,0.259962 0.586925,0.259962 0.219761,0 0.439523,-0.08308 0.222441,-0.08576 0.407363,-0.227802 z"/>
      <path d="m 89.2268,44.581106 -1.747373,4.09775 h -0.538684 l 0.557444,-1.248889 -1.192608,-2.848861 h 0.546724 l 0.919246,2.219056 0.927287,-2.219056 z"/>
    </g>
  </g>
</svg>
